<mxfile host="app.diagrams.net" modified="2024-05-10T20:11:07.194Z" agent="Mozilla/5.0 (Windows NT 10.0; Win64; x64) AppleWebKit/537.36 (KHTML, like Gecko) Chrome/124.0.0.0 Safari/537.36" etag="whBwIekkYak0nul3nDEE" version="24.3.1" type="device">
  <diagram name="Page-1" id="0783ab3e-0a74-02c8-0abd-f7b4e66b4bec">
    <mxGraphModel dx="1590" dy="814" grid="0" gridSize="10" guides="1" tooltips="1" connect="1" arrows="1" fold="1" page="1" pageScale="1" pageWidth="850" pageHeight="1100" background="none" math="0" shadow="0">
      <root>
        <mxCell id="0" />
        <mxCell id="1" parent="0" />
        <mxCell id="1c1d494c118603dd-1" value="Удаление шума на видео" style="swimlane;childLayout=stackLayout;startSize=20;rounded=0;shadow=0;comic=0;labelBackgroundColor=none;strokeWidth=1;fontFamily=Times New Roman;fontSize=15;align=center;fontColor=default;html=1;" parent="1" vertex="1">
          <mxGeometry x="40" y="20" width="630" height="767" as="geometry" />
        </mxCell>
        <mxCell id="1c1d494c118603dd-2" value="Функция разбиения видео на изображения" style="swimlane;startSize=20;fontFamily=Times New Roman;fontSize=15;fontColor=default;html=1;" parent="1c1d494c118603dd-1" vertex="1">
          <mxGeometry y="20" width="314" height="747" as="geometry" />
        </mxCell>
        <mxCell id="_wSPq7l1qYoLzEEM7iIP-1" value="" style="edgeStyle=orthogonalEdgeStyle;rounded=0;orthogonalLoop=1;jettySize=auto;fontSize=15;fontFamily=Times New Roman;fontColor=default;html=1;" edge="1" parent="1c1d494c118603dd-2" source="60571a20871a0731-4">
          <mxGeometry relative="1" as="geometry">
            <mxPoint x="132" y="104" as="targetPoint" />
          </mxGeometry>
        </mxCell>
        <mxCell id="60571a20871a0731-4" value="" style="ellipse;whiteSpace=wrap;rounded=0;shadow=0;comic=0;labelBackgroundColor=none;strokeWidth=1;fillColor=#000000;fontFamily=Times New Roman;fontSize=15;align=center;fontColor=default;html=1;" parent="1c1d494c118603dd-2" vertex="1">
          <mxGeometry x="112" y="34" width="40" height="40" as="geometry" />
        </mxCell>
        <mxCell id="60571a20871a0731-5" value="" style="shape=mxgraph.bpmn.shape;verticalLabelPosition=bottom;labelBackgroundColor=#ffffff;verticalAlign=top;perimeter=ellipsePerimeter;outline=end;symbol=terminate;rounded=0;shadow=0;comic=0;strokeWidth=1;fontFamily=Times New Roman;fontSize=15;align=center;fontColor=default;html=1;" parent="1c1d494c118603dd-2" vertex="1">
          <mxGeometry x="114.75" y="689" width="40" height="40" as="geometry" />
        </mxCell>
        <mxCell id="_wSPq7l1qYoLzEEM7iIP-3" value="" style="edgeStyle=orthogonalEdgeStyle;rounded=0;orthogonalLoop=1;jettySize=auto;fontSize=15;fontFamily=Times New Roman;fontColor=default;html=1;" edge="1" parent="1c1d494c118603dd-2" source="_wSPq7l1qYoLzEEM7iIP-2">
          <mxGeometry relative="1" as="geometry">
            <mxPoint x="132" y="184" as="targetPoint" />
          </mxGeometry>
        </mxCell>
        <mxCell id="_wSPq7l1qYoLzEEM7iIP-2" value="Открыть видео" style="rounded=1;whiteSpace=wrap;fontSize=15;fontFamily=Times New Roman;fontColor=default;html=1;" vertex="1" parent="1c1d494c118603dd-2">
          <mxGeometry x="50.75" y="102" width="168" height="62" as="geometry" />
        </mxCell>
        <mxCell id="_wSPq7l1qYoLzEEM7iIP-59" value="" style="edgeStyle=orthogonalEdgeStyle;rounded=0;orthogonalLoop=1;jettySize=auto;exitX=0.5;exitY=1;exitDx=0;exitDy=0;entryX=0.5;entryY=0;entryDx=0;entryDy=0;fontSize=15;fontFamily=Times New Roman;fontColor=default;html=1;" edge="1" parent="1c1d494c118603dd-2" source="_wSPq7l1qYoLzEEM7iIP-4" target="_wSPq7l1qYoLzEEM7iIP-58">
          <mxGeometry relative="1" as="geometry" />
        </mxCell>
        <mxCell id="_wSPq7l1qYoLzEEM7iIP-4" value="Определить параметры видео" style="rounded=1;whiteSpace=wrap;fontSize=15;fontFamily=Times New Roman;fontColor=default;html=1;" vertex="1" parent="1c1d494c118603dd-2">
          <mxGeometry x="50.75" y="182" width="168" height="62" as="geometry" />
        </mxCell>
        <mxCell id="_wSPq7l1qYoLzEEM7iIP-12" value="" style="edgeStyle=orthogonalEdgeStyle;rounded=0;orthogonalLoop=1;jettySize=auto;exitX=0;exitY=0.5;exitDx=0;exitDy=0;entryX=0;entryY=0.5;entryDx=0;entryDy=0;fontSize=15;fontFamily=Times New Roman;fontColor=default;html=1;" edge="1" parent="1c1d494c118603dd-2" source="_wSPq7l1qYoLzEEM7iIP-7" target="_wSPq7l1qYoLzEEM7iIP-13">
          <mxGeometry relative="1" as="geometry">
            <mxPoint x="44.72" y="630" as="targetPoint" />
            <mxPoint x="73.72" y="391" as="sourcePoint" />
            <Array as="points">
              <mxPoint x="35" y="389" />
              <mxPoint x="35" y="628" />
            </Array>
          </mxGeometry>
        </mxCell>
        <mxCell id="_wSPq7l1qYoLzEEM7iIP-7" value="" style="rhombus;whiteSpace=wrap;fontSize=15;fontFamily=Times New Roman;fontColor=default;html=1;" vertex="1" parent="1c1d494c118603dd-2">
          <mxGeometry x="79.75" y="359" width="110" height="60" as="geometry" />
        </mxCell>
        <mxCell id="_wSPq7l1qYoLzEEM7iIP-9" value="Является ли кадр последним?" style="text;align=center;verticalAlign=middle;resizable=0;points=[];autosize=1;strokeColor=none;fillColor=none;fontSize=15;fontFamily=Times New Roman;fontColor=default;html=1;" vertex="1" parent="1c1d494c118603dd-2">
          <mxGeometry x="44" y="421" width="208" height="30" as="geometry" />
        </mxCell>
        <mxCell id="_wSPq7l1qYoLzEEM7iIP-62" value="" style="edgeStyle=orthogonalEdgeStyle;rounded=0;orthogonalLoop=1;jettySize=auto;fontSize=15;fontFamily=Times New Roman;fontColor=default;html=1;" edge="1" parent="1c1d494c118603dd-2" source="_wSPq7l1qYoLzEEM7iIP-13" target="60571a20871a0731-5">
          <mxGeometry relative="1" as="geometry" />
        </mxCell>
        <mxCell id="_wSPq7l1qYoLzEEM7iIP-13" value="Освободить&amp;nbsp;&lt;br&gt;ресурсы" style="rounded=1;whiteSpace=wrap;fontSize=15;fontFamily=Times New Roman;fontColor=default;html=1;" vertex="1" parent="1c1d494c118603dd-2">
          <mxGeometry x="50.75" y="597" width="168" height="62" as="geometry" />
        </mxCell>
        <mxCell id="_wSPq7l1qYoLzEEM7iIP-11" value="Нет" style="text;align=center;verticalAlign=middle;resizable=0;points=[];autosize=1;strokeColor=none;fillColor=none;fontSize=15;fontFamily=Times New Roman;fontColor=default;html=1;" vertex="1" parent="1c1d494c118603dd-2">
          <mxGeometry x="187" y="361" width="42" height="30" as="geometry" />
        </mxCell>
        <mxCell id="_wSPq7l1qYoLzEEM7iIP-10" value="Да" style="text;align=center;verticalAlign=middle;resizable=0;points=[];autosize=1;strokeColor=none;fillColor=none;fontSize=15;fontFamily=Times New Roman;fontColor=default;html=1;" vertex="1" parent="1c1d494c118603dd-2">
          <mxGeometry x="44.75" y="361" width="35" height="30" as="geometry" />
        </mxCell>
        <mxCell id="_wSPq7l1qYoLzEEM7iIP-61" value="" style="edgeStyle=orthogonalEdgeStyle;rounded=0;orthogonalLoop=1;jettySize=auto;exitX=0;exitY=0.5;exitDx=0;exitDy=0;jumpStyle=arc;jumpSize=10;fontSize=15;fontFamily=Times New Roman;fontColor=default;html=1;" edge="1" parent="1c1d494c118603dd-2" source="_wSPq7l1qYoLzEEM7iIP-42">
          <mxGeometry relative="1" as="geometry">
            <mxPoint x="134" y="338" as="targetPoint" />
            <Array as="points">
              <mxPoint x="67" y="542" />
              <mxPoint x="24" y="542" />
              <mxPoint x="24" y="338" />
            </Array>
          </mxGeometry>
        </mxCell>
        <mxCell id="_wSPq7l1qYoLzEEM7iIP-42" value="Записать выходное изображение в&amp;nbsp;&lt;br&gt;видео файл" style="rounded=1;whiteSpace=wrap;fontSize=15;fontFamily=Times New Roman;fontColor=default;html=1;" vertex="1" parent="1c1d494c118603dd-2">
          <mxGeometry x="52" y="513" width="168" height="62" as="geometry" />
        </mxCell>
        <mxCell id="_wSPq7l1qYoLzEEM7iIP-64" style="edgeStyle=orthogonalEdgeStyle;rounded=0;orthogonalLoop=1;jettySize=auto;html=1;exitX=0.5;exitY=1;exitDx=0;exitDy=0;" edge="1" parent="1c1d494c118603dd-2" source="_wSPq7l1qYoLzEEM7iIP-58" target="_wSPq7l1qYoLzEEM7iIP-7">
          <mxGeometry relative="1" as="geometry" />
        </mxCell>
        <mxCell id="_wSPq7l1qYoLzEEM7iIP-58" value="Создать выходной&lt;br&gt;видеофайл" style="rounded=1;whiteSpace=wrap;fontSize=15;fontFamily=Times New Roman;fontColor=default;html=1;" vertex="1" parent="1c1d494c118603dd-2">
          <mxGeometry x="50.75" y="259" width="168" height="62" as="geometry" />
        </mxCell>
        <mxCell id="1c1d494c118603dd-3" value="Функция удаления шума на изображении" style="swimlane;startSize=20;fontFamily=Times New Roman;fontSize=15;fontColor=default;html=1;" parent="1c1d494c118603dd-1" vertex="1">
          <mxGeometry x="314" y="20" width="316" height="747" as="geometry" />
        </mxCell>
        <mxCell id="_wSPq7l1qYoLzEEM7iIP-23" value="" style="edgeStyle=orthogonalEdgeStyle;rounded=0;orthogonalLoop=1;jettySize=auto;fontSize=15;fontFamily=Times New Roman;fontColor=default;html=1;" edge="1" parent="1c1d494c118603dd-3" source="_wSPq7l1qYoLzEEM7iIP-15" target="_wSPq7l1qYoLzEEM7iIP-18">
          <mxGeometry relative="1" as="geometry" />
        </mxCell>
        <mxCell id="_wSPq7l1qYoLzEEM7iIP-15" value="Разбить изображение на фрагменты" style="rounded=1;whiteSpace=wrap;fontSize=15;fontFamily=Times New Roman;fontColor=default;html=1;" vertex="1" parent="1c1d494c118603dd-3">
          <mxGeometry x="68.38" y="148" width="168" height="62" as="geometry" />
        </mxCell>
        <mxCell id="_wSPq7l1qYoLzEEM7iIP-38" value="" style="edgeStyle=orthogonalEdgeStyle;rounded=0;orthogonalLoop=1;jettySize=auto;exitX=0.5;exitY=1;exitDx=0;exitDy=0;fontSize=15;fontFamily=Times New Roman;fontColor=default;html=1;" edge="1" parent="1c1d494c118603dd-3" source="_wSPq7l1qYoLzEEM7iIP-17" target="_wSPq7l1qYoLzEEM7iIP-33">
          <mxGeometry relative="1" as="geometry" />
        </mxCell>
        <mxCell id="_wSPq7l1qYoLzEEM7iIP-17" value="Обработать  фрагмент обученной нейронной сетью" style="rounded=1;whiteSpace=wrap;fontSize=15;fontFamily=Times New Roman;fontColor=default;html=1;" vertex="1" parent="1c1d494c118603dd-3">
          <mxGeometry x="63.63" y="526.5" width="168" height="62" as="geometry" />
        </mxCell>
        <mxCell id="_wSPq7l1qYoLzEEM7iIP-25" value="" style="edgeStyle=orthogonalEdgeStyle;rounded=0;orthogonalLoop=1;jettySize=auto;entryX=0.5;entryY=0;entryDx=0;entryDy=0;fontSize=15;fontFamily=Times New Roman;fontColor=default;html=1;" edge="1" parent="1c1d494c118603dd-3" source="_wSPq7l1qYoLzEEM7iIP-18" target="_wSPq7l1qYoLzEEM7iIP-28">
          <mxGeometry relative="1" as="geometry">
            <mxPoint x="111.63" y="399" as="targetPoint" />
            <Array as="points">
              <mxPoint x="214.13" y="285" />
              <mxPoint x="214.13" y="396" />
              <mxPoint x="148.13" y="396" />
            </Array>
          </mxGeometry>
        </mxCell>
        <mxCell id="_wSPq7l1qYoLzEEM7iIP-18" value="" style="rhombus;whiteSpace=wrap;fontSize=15;fontFamily=Times New Roman;fontColor=default;html=1;" vertex="1" parent="1c1d494c118603dd-3">
          <mxGeometry x="97.38" y="254" width="110" height="60" as="geometry" />
        </mxCell>
        <mxCell id="_wSPq7l1qYoLzEEM7iIP-20" value="Является ли&amp;nbsp;&lt;br&gt;фрагмент&amp;nbsp;&lt;br&gt;последним?" style="text;whiteSpace=wrap;fontSize=15;fontFamily=Times New Roman;fontColor=default;html=1;" vertex="1" parent="1c1d494c118603dd-3">
          <mxGeometry x="115.38" y="319" width="95.88" height="64" as="geometry" />
        </mxCell>
        <mxCell id="_wSPq7l1qYoLzEEM7iIP-21" value="Да" style="text;align=center;verticalAlign=middle;resizable=0;points=[];autosize=1;strokeColor=none;fillColor=none;fontSize=15;fontFamily=Times New Roman;fontColor=default;html=1;" vertex="1" parent="1c1d494c118603dd-3">
          <mxGeometry x="76.38" y="251" width="35" height="30" as="geometry" />
        </mxCell>
        <mxCell id="_wSPq7l1qYoLzEEM7iIP-22" value="Нет" style="text;align=center;verticalAlign=middle;resizable=0;points=[];autosize=1;strokeColor=none;fillColor=none;fontSize=15;fontFamily=Times New Roman;fontColor=default;html=1;" vertex="1" parent="1c1d494c118603dd-3">
          <mxGeometry x="200.38" y="251" width="42" height="30" as="geometry" />
        </mxCell>
        <mxCell id="_wSPq7l1qYoLzEEM7iIP-29" value="" style="edgeStyle=orthogonalEdgeStyle;rounded=0;orthogonalLoop=1;jettySize=auto;entryX=0.5;entryY=0;entryDx=0;entryDy=0;fontSize=15;fontFamily=Times New Roman;fontColor=default;html=1;" edge="1" parent="1c1d494c118603dd-3" source="_wSPq7l1qYoLzEEM7iIP-28" target="_wSPq7l1qYoLzEEM7iIP-17">
          <mxGeometry relative="1" as="geometry" />
        </mxCell>
        <mxCell id="_wSPq7l1qYoLzEEM7iIP-28" value="Нормализовать&amp;nbsp;&lt;br&gt;данные фрагмента" style="rounded=1;whiteSpace=wrap;fontSize=15;fontFamily=Times New Roman;fontColor=default;html=1;" vertex="1" parent="1c1d494c118603dd-3">
          <mxGeometry x="63.63" y="436.5" width="168" height="62" as="geometry" />
        </mxCell>
        <mxCell id="_wSPq7l1qYoLzEEM7iIP-32" value="" style="edgeStyle=orthogonalEdgeStyle;rounded=0;orthogonalLoop=1;jettySize=auto;entryX=0.5;entryY=0;entryDx=0;entryDy=0;fontSize=15;fontFamily=Times New Roman;fontColor=default;html=1;" edge="1" parent="1c1d494c118603dd-3" source="_wSPq7l1qYoLzEEM7iIP-30" target="_wSPq7l1qYoLzEEM7iIP-15">
          <mxGeometry relative="1" as="geometry" />
        </mxCell>
        <mxCell id="_wSPq7l1qYoLzEEM7iIP-30" value="Создать результирующее изображение" style="rounded=1;whiteSpace=wrap;fontSize=15;fontFamily=Times New Roman;fontColor=default;html=1;" vertex="1" parent="1c1d494c118603dd-3">
          <mxGeometry x="68.38" y="68" width="168" height="62" as="geometry" />
        </mxCell>
        <mxCell id="_wSPq7l1qYoLzEEM7iIP-36" value="" style="edgeStyle=orthogonalEdgeStyle;rounded=0;orthogonalLoop=1;jettySize=auto;exitX=1;exitY=0.5;exitDx=0;exitDy=0;fontSize=15;fontFamily=Times New Roman;fontColor=default;html=1;" edge="1" parent="1c1d494c118603dd-3" source="_wSPq7l1qYoLzEEM7iIP-33">
          <mxGeometry relative="1" as="geometry">
            <mxPoint x="153.38" y="224" as="targetPoint" />
            <Array as="points">
              <mxPoint x="252.38" y="648" />
              <mxPoint x="252.38" y="224" />
            </Array>
          </mxGeometry>
        </mxCell>
        <mxCell id="_wSPq7l1qYoLzEEM7iIP-33" value="Записать полученный фрагмент в результирующий кадр" style="rounded=1;whiteSpace=wrap;fontSize=15;fontFamily=Times New Roman;fontColor=default;html=1;" vertex="1" parent="1c1d494c118603dd-3">
          <mxGeometry x="63.63" y="617" width="168" height="62" as="geometry" />
        </mxCell>
        <mxCell id="_wSPq7l1qYoLzEEM7iIP-37" value="" style="edgeStyle=orthogonalEdgeStyle;rounded=0;orthogonalLoop=1;jettySize=auto;exitX=1;exitY=0.5;exitDx=0;exitDy=0;entryX=0;entryY=0.5;entryDx=0;entryDy=0;fontSize=15;fontFamily=Times New Roman;fontColor=default;html=1;" edge="1" parent="1c1d494c118603dd-1" source="_wSPq7l1qYoLzEEM7iIP-7" target="_wSPq7l1qYoLzEEM7iIP-30">
          <mxGeometry relative="1" as="geometry">
            <Array as="points">
              <mxPoint x="281" y="409" />
              <mxPoint x="281" y="119" />
            </Array>
          </mxGeometry>
        </mxCell>
        <mxCell id="_wSPq7l1qYoLzEEM7iIP-41" value="" style="edgeStyle=orthogonalEdgeStyle;rounded=0;orthogonalLoop=1;jettySize=auto;exitX=0;exitY=0.5;exitDx=0;exitDy=0;jumpStyle=arc;jumpSize=9;entryX=1;entryY=0.5;entryDx=0;entryDy=0;fontSize=15;fontFamily=Times New Roman;fontColor=default;html=1;" edge="1" parent="1c1d494c118603dd-1" source="_wSPq7l1qYoLzEEM7iIP-18" target="_wSPq7l1qYoLzEEM7iIP-42">
          <mxGeometry relative="1" as="geometry">
            <mxPoint x="112" y="273" as="targetPoint" />
            <Array as="points">
              <mxPoint x="347" y="304" />
              <mxPoint x="347" y="564" />
            </Array>
          </mxGeometry>
        </mxCell>
      </root>
    </mxGraphModel>
  </diagram>
</mxfile>
